<svg xmlns="http://www.w3.org/2000/svg" width="43" height="41" viewBox="0 0 43 41">
  <title>Bar Chart 2</title>
  <g>
    <path d="M41.5,41H1.5a1.5,1.5,0,0,1,0-3h40a1.5,1.5,0,0,1,0,3Z" fill="#3e4166"/>
    <path d="M25.5,41h-8A1.5,1.5,0,0,1,16,39.5V1.5A1.5,1.5,0,0,1,17.5,0h8a1.5,1.5,0,0,1,0,3H19V38h5V11.792a1.5,1.5,0,0,1,3,0V39.5A1.5,1.5,0,0,1,25.5,41Z" fill="#3e4166"/>
    <path d="M25.5,8.08a1.351,1.351,0,0,1-.29-.03.893.893,0,0,1-.28-.08,2.148,2.148,0,0,1-.26-.14,1.089,1.089,0,0,1-.231-.19A1.484,1.484,0,0,1,24,6.58a1.5,1.5,0,0,1,.03-.29c.02-.09.05-.19.079-.28a2.153,2.153,0,0,1,.141-.26,2.223,2.223,0,0,1,.189-.23,1.046,1.046,0,0,1,.231-.18,1.3,1.3,0,0,1,.26-.14,1.291,1.291,0,0,1,.28-.09,1.533,1.533,0,0,1,1.35.41A1.516,1.516,0,0,1,27,6.58a1.5,1.5,0,0,1-.44,1.06A1.516,1.516,0,0,1,25.5,8.08Z" fill="#3e4166"/>
    <path d="M39.5,41h-8A1.5,1.5,0,0,1,30,39.5v-26A1.5,1.5,0,0,1,31.5,12h8A1.5,1.5,0,0,1,41,13.5v26A1.5,1.5,0,0,1,39.5,41ZM33,38h5V15H33Z" fill="#3e4166"/>
    <path d="M11.5,41h-8A1.5,1.5,0,0,1,2,39.5v-18A1.5,1.5,0,0,1,3.5,20h8A1.5,1.5,0,0,1,13,21.5v18A1.5,1.5,0,0,1,11.5,41ZM5,38h5V23H5Z" fill="#3e4166"/>
  </g>
</svg>
