<svg xmlns="http://www.w3.org/2000/svg" width="41" height="43" viewBox="0 0 41 43">
  <title>Bar Chart</title>
  <g>
    <path d="M1.5,43A1.5,1.5,0,0,1,0,41.5V1.5a1.5,1.5,0,0,1,3,0v40A1.5,1.5,0,0,1,1.5,43Z" fill="#3e4166"/>
    <path d="M39.5,27A1.5,1.5,0,0,1,38,25.5V19H3v5H29.333a1.5,1.5,0,0,1,0,3H1.5A1.5,1.5,0,0,1,0,25.5v-8A1.5,1.5,0,0,1,1.5,16h38A1.5,1.5,0,0,1,41,17.5v8A1.5,1.5,0,0,1,39.5,27Z" fill="#3e4166"/>
    <path d="M34.19,27a1.513,1.513,0,0,1-1.39-.931,1.553,1.553,0,0,1-.11-.569,1.5,1.5,0,0,1,.44-1.061,1.55,1.55,0,0,1,2.12,0,1.5,1.5,0,0,1,.44,1.061,1.38,1.38,0,0,1-.12.569,1.34,1.34,0,0,1-.32.491A1.516,1.516,0,0,1,34.19,27Z" fill="#3e4166"/>
    <path d="M27.5,41H1.5A1.5,1.5,0,0,1,0,39.5v-8A1.5,1.5,0,0,1,1.5,30h26A1.5,1.5,0,0,1,29,31.5v8A1.5,1.5,0,0,1,27.5,41ZM3,38H26V33H3Z" fill="#3e4166"/>
    <path d="M19.5,13H1.5A1.5,1.5,0,0,1,0,11.5v-8A1.5,1.5,0,0,1,1.5,2h18A1.5,1.5,0,0,1,21,3.5v8A1.5,1.5,0,0,1,19.5,13ZM3,10H18V5H3Z" fill="#3e4166"/>
  </g>
</svg>
