<svg xmlns="http://www.w3.org/2000/svg" width="43" height="39.621" viewBox="0 0 43 39.621">
  <title>Cake</title>
  <g>
    <path d="M37.5,39.621H5.5a1.5,1.5,0,0,1-1.5-1.5v-18a3.5,3.5,0,0,1,3.5-3.5h28a3.5,3.5,0,0,1,3.5,3.5v18A1.5,1.5,0,0,1,37.5,39.621Zm-30.5-3H36v-16.5a.5.5,0,0,0-.5-.5H7.5a.5.5,0,0,0-.5.5Z" fill="#3e4166"/>
    <path d="M41.5,39.621H1.5a1.5,1.5,0,0,1,0-3h40a1.5,1.5,0,0,1,0,3Z" fill="#3e4166"/>
    <path d="M30.5,30.621a1.5,1.5,0,0,1-1.06-.44,2.11,2.11,0,0,1-.19-.23,2.148,2.148,0,0,1-.14-.26,2.288,2.288,0,0,1-.08-.28,1.358,1.358,0,0,1-.03-.29,1.5,1.5,0,0,1,1.79-1.47,1.309,1.309,0,0,1,.28.09,1.264,1.264,0,0,1,.26.13,1.573,1.573,0,0,1,.42.42,1.264,1.264,0,0,1,.13.26,1.309,1.309,0,0,1,.09.28,1.358,1.358,0,0,1,.03.29,1.516,1.516,0,0,1-.44,1.06A1.5,1.5,0,0,1,30.5,30.621Z" fill="#3e4166"/>
    <path d="M25.5,30.621H5.5a1.5,1.5,0,1,1,0-3h20a1.5,1.5,0,0,1,0,3Z" fill="#3e4166"/>
    <path d="M9.5,23.621a3.5,3.5,0,1,1,3.5-3.5A3.5,3.5,0,0,1,9.5,23.621Zm0-4a.5.5,0,1,0,.5.5A.5.5,0,0,0,9.5,19.621Z" fill="#3e4166"/>
    <path d="M15.5,23.621a3.5,3.5,0,1,1,3.5-3.5A3.5,3.5,0,0,1,15.5,23.621Zm0-4a.5.5,0,1,0,.5.5A.5.5,0,0,0,15.5,19.621Z" fill="#3e4166"/>
    <path d="M21.5,23.621a3.5,3.5,0,1,1,3.5-3.5A3.5,3.5,0,0,1,21.5,23.621Zm0-4a.5.5,0,1,0,.5.5A.5.5,0,0,0,21.5,19.621Z" fill="#3e4166"/>
    <path d="M27.5,23.621a3.5,3.5,0,1,1,3.5-3.5A3.5,3.5,0,0,1,27.5,23.621Zm0-4a.5.5,0,1,0,.5.5A.5.5,0,0,0,27.5,19.621Z" fill="#3e4166"/>
    <path d="M33.5,23.621a3.5,3.5,0,1,1,3.5-3.5A3.5,3.5,0,0,1,33.5,23.621Zm0-4a.5.5,0,1,0,.5.5A.5.5,0,0,0,33.5,19.621Z" fill="#3e4166"/>
    <path d="M12.5,19.621a1.5,1.5,0,0,1-1.5-1.5v-9a1.5,1.5,0,0,1,3,0v9A1.5,1.5,0,0,1,12.5,19.621Z" fill="#3e4166"/>
    <path d="M12.5,5.413a2.5,2.5,0,0,1-1.767-4.267l.706-.707a1.5,1.5,0,0,1,2.122,0l.707.707A2.5,2.5,0,0,1,12.5,5.413Zm-.355-2.147,0,0h0Z" fill="#3e4166"/>
    <path d="M21.5,19.621a1.5,1.5,0,0,1-1.5-1.5v-9a1.5,1.5,0,0,1,3,0v9A1.5,1.5,0,0,1,21.5,19.621Z" fill="#3e4166"/>
    <path d="M21.5,5.413a2.5,2.5,0,0,1-1.767-4.267l.706-.707a1.5,1.5,0,0,1,2.122,0l.707.707A2.5,2.5,0,0,1,21.5,5.413Zm-.355-2.147,0,0h0Z" fill="#3e4166"/>
    <path d="M30.5,19.621a1.5,1.5,0,0,1-1.5-1.5v-9a1.5,1.5,0,0,1,3,0v9A1.5,1.5,0,0,1,30.5,19.621Z" fill="#3e4166"/>
    <path d="M30.5,5.413a2.5,2.5,0,0,1-1.767-4.267l.706-.707a1.5,1.5,0,0,1,2.122,0l.707.707A2.5,2.5,0,0,1,30.5,5.413Zm-.355-2.147,0,0h0Z" fill="#3e4166"/>
  </g>
</svg>
