<svg xmlns="http://www.w3.org/2000/svg" width="43" height="39" viewBox="0 0 43 39">
  <title>Camera 2</title>
  <g>
    <path d="M41.5,32.33a1.553,1.553,0,0,1-1.061-.43A1.525,1.525,0,0,1,40,30.83a1.5,1.5,0,0,1,.03-.29,2.481,2.481,0,0,1,.079-.28A2.153,2.153,0,0,1,40.25,30a2.223,2.223,0,0,1,.189-.23,1.549,1.549,0,0,1,2.121,0,2.232,2.232,0,0,1,.19.23,2.148,2.148,0,0,1,.14.26,2.288,2.288,0,0,1,.08.28,1.5,1.5,0,0,1,.03.29,1.522,1.522,0,0,1-.44,1.07A1.551,1.551,0,0,1,41.5,32.33Z" fill="#3e4166"/>
    <path d="M41.5,39H1.5A1.5,1.5,0,0,1,0,37.5V7.5A1.5,1.5,0,0,1,1.5,6H15.419l1.658-4.974A1.5,1.5,0,0,1,18.5,0h14a1.5,1.5,0,0,1,1.423,1.026L35.581,6H41.5A1.5,1.5,0,0,1,43,7.5V25.25a1.5,1.5,0,0,1-3,0V9H34.5a1.5,1.5,0,0,1-1.423-1.026L31.419,3H19.581L17.923,7.974A1.5,1.5,0,0,1,16.5,9H3V36H41.5a1.5,1.5,0,0,1,0,3Z" fill="#3e4166"/>
    <path d="M25.5,30A8.5,8.5,0,1,1,34,21.5,8.51,8.51,0,0,1,25.5,30Zm0-14A5.5,5.5,0,1,0,31,21.5,5.506,5.506,0,0,0,25.5,16Z" fill="#3e4166"/>
    <path d="M29,21a3,3,0,1,1,3-3A3,3,0,0,1,29,21Zm0-3h0Zm0,0h0Zm0,0h0Zm0,0h0Zm0,0h0Zm0,0h0Zm0,0h0Z" fill="#3e4166"/>
    <path d="M8.5,31A1.5,1.5,0,0,1,7,29.5v-14a1.5,1.5,0,0,1,3,0v14A1.5,1.5,0,0,1,8.5,31Z" fill="#3e4166"/>
  </g>
</svg>
