<svg xmlns="http://www.w3.org/2000/svg" width="43" height="39" viewBox="0 0 43 39">
  <title>Camera</title>
  <g>
    <path d="M41.5,32.33a1.351,1.351,0,0,1-.29-.03.893.893,0,0,1-.28-.08,1.3,1.3,0,0,1-.26-.14,2.133,2.133,0,0,1-.231-.18,1.511,1.511,0,0,1,0-2.13,1.345,1.345,0,0,1,.231-.18,1.3,1.3,0,0,1,.26-.14,1.291,1.291,0,0,1,.28-.09,1.417,1.417,0,0,1,.58,0,1.3,1.3,0,0,1,.279.09,1.285,1.285,0,0,1,.261.14,1.3,1.3,0,0,1,.23.18A1.516,1.516,0,0,1,43,30.83a1.54,1.54,0,0,1-.44,1.07,2.028,2.028,0,0,1-.23.18,1.285,1.285,0,0,1-.261.14.9.9,0,0,1-.279.08A1.358,1.358,0,0,1,41.5,32.33Z" fill="#3e4166"/>
    <path d="M41.5,39H1.5A1.5,1.5,0,0,1,0,37.5V7.5A1.5,1.5,0,0,1,1.5,6h9.919l1.658-4.974A1.5,1.5,0,0,1,14.5,0h14a1.5,1.5,0,0,1,1.423,1.026L31.581,6H41.5A1.5,1.5,0,0,1,43,7.5V25.25a1.5,1.5,0,0,1-3,0V9H30.5a1.5,1.5,0,0,1-1.423-1.026L27.419,3H15.581L13.923,7.974A1.5,1.5,0,0,1,12.5,9H3V36H41.5a1.5,1.5,0,0,1,0,3Z" fill="#3e4166"/>
    <path d="M21.5,32A10.5,10.5,0,1,1,32,21.5,10.512,10.512,0,0,1,21.5,32Zm0-18A7.5,7.5,0,1,0,29,21.5,7.508,7.508,0,0,0,21.5,14Z" fill="#3e4166"/>
    <path d="M25.5,20A3.5,3.5,0,1,1,29,16.5,3.5,3.5,0,0,1,25.5,20Zm0-4a.5.5,0,1,0,.5.5A.5.5,0,0,0,25.5,16Z" fill="#3e4166"/>
  </g>
</svg>
