<svg xmlns="http://www.w3.org/2000/svg" width="43.036" height="43.004" viewBox="0 0 43.036 43.004">
  <title>Chat</title>
  <g>
    <path d="M41.166,26.96a1.5,1.5,0,0,1-1.5-1.5,1.5,1.5,0,0,1,.44-1.06,1.548,1.548,0,0,1,2.12,0,1.5,1.5,0,0,1,.44,1.06,1.516,1.516,0,0,1-.44,1.06A1.5,1.5,0,0,1,41.166,26.96Z" fill="#3e4166"/>
    <path d="M21.558,43A21.5,21.5,0,0,1,3.443,33.1a21.164,21.164,0,0,1-.754-21.9A21.171,21.171,0,0,1,21.536,0,21.506,21.506,0,0,1,42.958,19.418a1.5,1.5,0,1,1-2.984.3A18.516,18.516,0,0,0,21.536,3,18.212,18.212,0,0,0,5.324,12.633a18.208,18.208,0,0,0,.642,18.843,18.47,18.47,0,0,0,24.6,6.157,1.5,1.5,0,0,1,1.1-.148l7.8,1.953-1.953-7.8a1.5,1.5,0,1,1,2.91-.728l2.56,10.23a1.5,1.5,0,0,1-1.819,1.819L31.51,40.537A21.275,21.275,0,0,1,21.558,43Z" fill="#3e4166"/>
    <path d="M21.536,24a2.442,2.442,0,0,1-2.492-2.5,2.533,2.533,0,0,1,.624-1.68,2.506,2.506,0,0,1,4.36,1.68,2.532,2.532,0,0,1-.623,1.68A2.452,2.452,0,0,1,21.536,24Zm0-3a.559.559,0,0,0-.381.2.469.469,0,0,0-.127.3.5.5,0,0,0,.89.3.467.467,0,0,0,.126-.3A.554.554,0,0,0,21.536,21Z" fill="#3e4166"/>
    <path d="M11.536,24a2.442,2.442,0,0,1-2.492-2.5,2.533,2.533,0,0,1,.624-1.68,2.506,2.506,0,0,1,4.36,1.68,2.532,2.532,0,0,1-.623,1.68A2.452,2.452,0,0,1,11.536,24Zm0-3a.559.559,0,0,0-.381.2.469.469,0,0,0-.127.3.5.5,0,0,0,.89.3.467.467,0,0,0,.126-.3A.554.554,0,0,0,11.536,21Z" fill="#3e4166"/>
    <path d="M31.536,23.992a2.532,2.532,0,0,1-1.68-.623,2.521,2.521,0,1,1,1.68.623Zm0-3a.481.481,0,0,0-.3.126.469.469,0,0,0,0,.763c.329.291.8-.069.8-.381A.555.555,0,0,0,31.536,20.992Z" fill="#3e4166"/>
  </g>
</svg>
