<svg xmlns="http://www.w3.org/2000/svg" width="43" height="41.042" viewBox="0 0 43 41.042">
  <title>Favorite</title>
  <g>
    <path d="M33.859,41.042a1.507,1.507,0,0,1-.7-.171L21.5,34.738,9.838,40.871a1.5,1.5,0,0,1-2.177-1.582L9.889,26.3l-9.436-9.2a1.5,1.5,0,0,1,.831-2.559l13.039-1.895L20.155.836a1.5,1.5,0,0,1,2.69,0l5.832,11.815,13.039,1.895a1.5,1.5,0,0,1,.831,2.559l-10,9.747A1.5,1.5,0,0,1,30.453,24.7l7.823-7.626L27.465,15.507a1.5,1.5,0,0,1-1.129-.82L21.5,4.889l-4.836,9.8a1.5,1.5,0,0,1-1.129.82L4.724,17.078,12.547,24.7a1.5,1.5,0,0,1,.431,1.328L11.132,36.8l9.67-5.085a1.51,1.51,0,0,1,1.4,0l12.361,6.5a1.5,1.5,0,0,1-.7,2.828Z" fill="#3e4166"/>
    <path d="M32.63,33.871a1.46,1.46,0,0,1-1.061-.44,1.591,1.591,0,0,1-.329-.48,1.616,1.616,0,0,1-.11-.58,1.411,1.411,0,0,1,.12-.57,1.239,1.239,0,0,1,.13-.26,1.928,1.928,0,0,1,.189-.23,1.081,1.081,0,0,1,.231-.181,1.376,1.376,0,0,1,.259-.139,1.263,1.263,0,0,1,.281-.09,1.417,1.417,0,0,1,.58,0,1.289,1.289,0,0,1,.28.09,1.353,1.353,0,0,1,.26.139,1.022,1.022,0,0,1,.229.181,1.943,1.943,0,0,1,.191.23,2.071,2.071,0,0,1,.139.26,2.682,2.682,0,0,1,.081.28,1.512,1.512,0,0,1-.9,1.68A1.567,1.567,0,0,1,32.63,33.871Z" fill="#3e4166"/>
  </g>
</svg>
