<svg xmlns="http://www.w3.org/2000/svg" width="31" height="43" viewBox="0 0 31 43">
  <title>Location 2</title>
  <g>
    <path d="M18.34,35.689a1.388,1.388,0,0,1-.57-.12,1.416,1.416,0,0,1-.49-.319,1.5,1.5,0,0,1-.44-1.061,1.479,1.479,0,0,1,.44-1.059,1.546,1.546,0,0,1,2.12,0,1.5,1.5,0,0,1,.44,1.059,1.381,1.381,0,0,1-.11.571,1.652,1.652,0,0,1-.33.49A1.5,1.5,0,0,1,18.34,35.689Z" fill="#3e4166"/>
    <path d="M15.5,43a1.5,1.5,0,0,1-1.4-.956L9.305,29.7A15.5,15.5,0,1,1,31,15.5a15.589,15.589,0,0,1-9.931,14.461,1.5,1.5,0,1,1-1.077-2.8,12.5,12.5,0,1,0-8.983,0,1.5,1.5,0,0,1,.859.858L16.9,40.956a1.5,1.5,0,0,1-.855,1.942A1.48,1.48,0,0,1,15.5,43Z" fill="#3e4166"/>
    <path d="M15.5,22A6.5,6.5,0,1,1,22,15.5,6.508,6.508,0,0,1,15.5,22Zm0-10A3.5,3.5,0,1,0,19,15.5,3.5,3.5,0,0,0,15.5,12Z" fill="#3e4166"/>
  </g>
</svg>
