<svg xmlns="http://www.w3.org/2000/svg" width="32.847" height="42.992" viewBox="0 0 32.847 42.992">
  <title>Location</title>
  <g>
    <path d="M16.424,42.992a1.5,1.5,0,0,1-1.208-.61L3.226,26.109A16.393,16.393,0,0,1,28.015,4.794a16.3,16.3,0,0,1,1.606,21.315L25.131,32.2a1.5,1.5,0,0,1-2.416-1.779l4.491-6.1A13.393,13.393,0,0,0,6.953,6.915,13.315,13.315,0,0,0,5.641,24.33L17.631,40.6a1.5,1.5,0,0,1-1.207,2.39Z" fill="#3e4166"/>
    <path d="M20.563,37.372a1.543,1.543,0,0,1-.57-.111,1.609,1.609,0,0,1-.49-.33,1.42,1.42,0,0,1-.32-.489,1.391,1.391,0,0,1-.12-.57,1.358,1.358,0,0,1,.03-.29,1.291,1.291,0,0,1,.09-.28.837.837,0,0,1,.14-.26,1.046,1.046,0,0,1,.18-.231,2.022,2.022,0,0,1,.231-.189,2.062,2.062,0,0,1,.259-.14,2.288,2.288,0,0,1,.28-.08,1.49,1.49,0,0,1,1.35.409,1.51,1.51,0,0,1,.19.231,1.591,1.591,0,0,1,.14.26,1.274,1.274,0,0,1,.08.28,1.358,1.358,0,0,1,.03.29,1.383,1.383,0,0,1-.11.57,1.61,1.61,0,0,1-.33.489,1.553,1.553,0,0,1-.48.33A1.637,1.637,0,0,1,20.563,37.372Z" fill="#3e4166"/>
    <path d="M16.423,24.73a8.418,8.418,0,1,1,5.958-2.464A8.4,8.4,0,0,1,16.423,24.73Zm0-13.846a5.425,5.425,0,1,0,3.836,1.589A5.385,5.385,0,0,0,16.423,10.884Z" fill="#3e4166"/>
  </g>
</svg>
