<svg xmlns="http://www.w3.org/2000/svg" width="43" height="38.301" viewBox="0 0 43 38.301">
  <title>Love</title>
  <g>
    <path d="M21.5,38.3a1.5,1.5,0,0,1-1.061-.44L3.608,21.03A12.319,12.319,0,0,1,21.03,3.608l.47.47.47-.47A12.319,12.319,0,0,1,39.392,21.03L31.353,29.2a1.5,1.5,0,1,1-2.138-2.1l8.047-8.174A9.319,9.319,0,1,0,24.091,5.729L22.561,7.26a1.5,1.5,0,0,1-2.122,0l-1.53-1.53A9.319,9.319,0,1,0,5.729,18.909L22.561,35.74A1.5,1.5,0,0,1,21.5,38.3Z" fill="#3e4166"/>
    <path d="M26.2,33.6a1.358,1.358,0,0,1-.29-.03,1.309,1.309,0,0,1-.28-.09,1.264,1.264,0,0,1-.26-.13,2.11,2.11,0,0,1-.23-.19,1.5,1.5,0,0,1-.44-1.06,1.516,1.516,0,0,1,.44-1.06,2.11,2.11,0,0,1,.23-.19,1.264,1.264,0,0,1,.26-.13,1.309,1.309,0,0,1,.28-.09,1.5,1.5,0,0,1,1.35.41,1.5,1.5,0,0,1,0,2.12A1.5,1.5,0,0,1,26.2,33.6Z" fill="#3e4166"/>
  </g>
</svg>
