<svg xmlns="http://www.w3.org/2000/svg" width="43" height="39" viewBox="0 0 43 39">
  <title>Message</title>
  <g>
    <path d="M41.5,31.28a1.516,1.516,0,0,1-1.06-.44,1.454,1.454,0,0,1-.19-.23,1.054,1.054,0,0,1-.13-.26,1.309,1.309,0,0,1-.09-.28,1.358,1.358,0,0,1-.03-.29,1.428,1.428,0,0,1,.03-.29,1.309,1.309,0,0,1,.09-.28,1.264,1.264,0,0,1,.13-.26,2.11,2.11,0,0,1,.19-.23,1.5,1.5,0,0,1,1.35-.41,1.309,1.309,0,0,1,.28.09,1.264,1.264,0,0,1,.26.13,1.573,1.573,0,0,1,.42.42,1.264,1.264,0,0,1,.13.26,1.309,1.309,0,0,1,.09.28,1.428,1.428,0,0,1,.03.29,1.358,1.358,0,0,1-.03.29,1.309,1.309,0,0,1-.09.28,1.054,1.054,0,0,1-.13.26,1.454,1.454,0,0,1-.19.23,2.11,2.11,0,0,1-.23.19,2.148,2.148,0,0,1-.26.14,2.288,2.288,0,0,1-.28.08A1.358,1.358,0,0,1,41.5,31.28Z" fill="#3e4166"/>
    <path d="M41.5,39a1.494,1.494,0,0,1-.691-.169L29.593,33H1.5A1.5,1.5,0,0,1,0,31.5V1.5A1.5,1.5,0,0,1,1.5,0h40A1.5,1.5,0,0,1,43,1.5V23.906a1.5,1.5,0,1,1-3,0V3H3V30H29.96a1.5,1.5,0,0,1,.692.169l11.54,6A1.5,1.5,0,0,1,41.5,39Z" fill="#3e4166"/>
    <path d="M11.5,19A2.5,2.5,0,1,1,14,16.5,2.5,2.5,0,0,1,11.5,19Zm0-3a.5.5,0,1,0,.5.5A.5.5,0,0,0,11.5,16Z" fill="#3e4166"/>
    <path d="M21.5,19A2.5,2.5,0,1,1,24,16.5,2.5,2.5,0,0,1,21.5,19Zm0-3a.5.5,0,1,0,.5.5A.5.5,0,0,0,21.5,16Z" fill="#3e4166"/>
    <path d="M31.5,19A2.5,2.5,0,1,1,34,16.5,2.5,2.5,0,0,1,31.5,19Zm0-3a.5.5,0,1,0,.5.5A.5.5,0,0,0,31.5,16Z" fill="#3e4166"/>
  </g>
</svg>
