<svg xmlns="http://www.w3.org/2000/svg" width="43" height="43" viewBox="0 0 43 43">
  <title>Open Mail</title>
  <g>
    <path d="M41.5,43H1.5A1.5,1.5,0,0,1,0,41.5V9.5a1.5,1.5,0,0,1,3,0V40H40V9.5a1.5,1.5,0,0,1,3,0v32A1.5,1.5,0,0,1,41.5,43Z" fill="#3e4166"/>
    <path d="M21.5,30a1.5,1.5,0,0,1-1.033-.413l-20-19A1.5,1.5,0,0,1,1.5,8h3a1.5,1.5,0,0,1,.617,2.868L21.5,26.431,37.883,10.868A1.5,1.5,0,0,1,38.5,8h3a1.5,1.5,0,0,1,1.033,2.587l-20,19A1.5,1.5,0,0,1,21.5,30Z" fill="#3e4166"/>
    <path d="M38.5,14A1.5,1.5,0,0,1,37,12.5V3H6v9.5a1.5,1.5,0,0,1-3,0V1.5A1.5,1.5,0,0,1,4.5,0h34A1.5,1.5,0,0,1,40,1.5v11A1.5,1.5,0,0,1,38.5,14Z" fill="#3e4166"/>
    <path d="M7.61,37.272a1.5,1.5,0,0,1-1.026-2.594l9.89-9.272a1.5,1.5,0,0,1,2.052,2.188L8.635,36.867A1.493,1.493,0,0,1,7.61,37.272Z" fill="#3e4166"/>
    <path d="M30.788,32.958a1.5,1.5,0,0,1-1.026-.406l-5.288-4.958a1.5,1.5,0,1,1,2.052-2.188l5.288,4.957a1.5,1.5,0,0,1-1.026,2.595Z" fill="#3e4166"/>
    <path d="M35.39,37.27a1.358,1.358,0,0,1-.29-.03,2.288,2.288,0,0,1-.28-.08,2.148,2.148,0,0,1-.26-.14,2.11,2.11,0,0,1-.23-.19,1.5,1.5,0,0,1-.44-1.06,1.428,1.428,0,0,1,.03-.29,1.309,1.309,0,0,1,.09-.28,1.264,1.264,0,0,1,.13-.26,2.11,2.11,0,0,1,.19-.23,1.5,1.5,0,0,1,1.35-.41,1.309,1.309,0,0,1,.28.09.939.939,0,0,1,.26.14,1.018,1.018,0,0,1,.23.18,2.11,2.11,0,0,1,.19.23,2.148,2.148,0,0,1,.14.26,2.288,2.288,0,0,1,.08.28,1.428,1.428,0,0,1,.03.29,1.5,1.5,0,0,1-.44,1.06,1.454,1.454,0,0,1-.23.19,2.148,2.148,0,0,1-.26.14,2.288,2.288,0,0,1-.28.08A1.358,1.358,0,0,1,35.39,37.27Z" fill="#3e4166"/>
  </g>
</svg>
