<svg xmlns="http://www.w3.org/2000/svg" width="35" height="43" viewBox="0 0 35 43">
  <title>Pin Location</title>
  <g>
    <path d="M17.5,19A9.5,9.5,0,1,1,27,9.5,9.511,9.511,0,0,1,17.5,19Zm0-16A6.5,6.5,0,1,0,24,9.5,6.508,6.508,0,0,0,17.5,3Z" fill="#3e4166"/>
    <path d="M17.5,37a1.351,1.351,0,0,1-.29-.03,1.291,1.291,0,0,1-.28-.09,1.264,1.264,0,0,1-.26-.13,1.536,1.536,0,0,1-.42-.42,2.153,2.153,0,0,1-.141-.26,2.481,2.481,0,0,1-.079-.28,1.417,1.417,0,0,1,0-.58,2.481,2.481,0,0,1,.079-.28,2.153,2.153,0,0,1,.141-.26,1.506,1.506,0,0,1,.189-.23,2.221,2.221,0,0,1,.231-.19,1.264,1.264,0,0,1,.26-.13,1.291,1.291,0,0,1,.28-.09,1.417,1.417,0,0,1,.58,0,1.3,1.3,0,0,1,.279.09,1.247,1.247,0,0,1,.261.13,2.11,2.11,0,0,1,.23.19A1.5,1.5,0,0,1,19,35.5a1.358,1.358,0,0,1-.03.29,2.288,2.288,0,0,1-.08.28,2.148,2.148,0,0,1-.14.26,2.232,2.232,0,0,1-.19.23A1.516,1.516,0,0,1,17.5,37Z" fill="#3e4166"/>
    <path d="M17.5,31.208a1.5,1.5,0,0,1-1.5-1.5V17.5a1.5,1.5,0,0,1,3,0V29.708A1.5,1.5,0,0,1,17.5,31.208Z" fill="#3e4166"/>
    <path d="M17.5,43C8.8,43,0,40.424,0,35.5c0-3.1,3.577-5.572,9.814-6.794a1.5,1.5,0,0,1,.577,2.944C5.59,32.591,3,34.335,3,35.5,3,37.292,8.783,40,17.5,40S32,37.292,32,35.5c0-1.072-2.5-3.013-8.067-3.975a1.5,1.5,0,1,1,.509-2.956C31.054,29.711,35,32.3,35,35.5,35,40.424,26.2,43,17.5,43Z" fill="#3e4166"/>
  </g>
</svg>
