<svg xmlns="http://www.w3.org/2000/svg" width="43" height="43" viewBox="0 0 43 43">
  <title>Share</title>
  <g>
    <path d="M6.5,28A6.5,6.5,0,1,1,13,21.5,6.508,6.508,0,0,1,6.5,28Zm0-10A3.5,3.5,0,1,0,10,21.5,3.5,3.5,0,0,0,6.5,18Z" fill="#3e4166"/>
    <path d="M36.5,43A6.5,6.5,0,1,1,43,36.5,6.508,6.508,0,0,1,36.5,43Zm0-10A3.5,3.5,0,1,0,40,36.5,3.5,3.5,0,0,0,36.5,33Z" fill="#3e4166"/>
    <path d="M36.5,13A6.5,6.5,0,1,1,43,6.5,6.508,6.508,0,0,1,36.5,13Zm0-10A3.5,3.5,0,1,0,40,6.5,3.5,3.5,0,0,0,36.5,3Z" fill="#3e4166"/>
    <path d="M11.2,20.65a1.5,1.5,0,0,1-.672-2.842l20.6-10.3a1.5,1.5,0,1,1,1.342,2.684l-20.6,10.3A1.5,1.5,0,0,1,11.2,20.65Z" fill="#3e4166"/>
    <path d="M22.4,30.951a1.508,1.508,0,0,1-.67-.159L10.3,25.076a1.5,1.5,0,1,1,1.342-2.683l11.431,5.715a1.5,1.5,0,0,1-.672,2.843Z" fill="#3e4166"/>
    <path d="M27.28,33.39a1.5,1.5,0,0,1-.29-.03,2.288,2.288,0,0,1-.28-.08,2.148,2.148,0,0,1-.26-.14,2.11,2.11,0,0,1-.23-.19.99.99,0,0,1-.18-.23,1.047,1.047,0,0,1-.141-.26,1.307,1.307,0,0,1-.089-.28,1.358,1.358,0,0,1-.03-.29,1.428,1.428,0,0,1,.03-.29,1.307,1.307,0,0,1,.089-.28,1.761,1.761,0,0,1,.321-.49,2.11,2.11,0,0,1,.23-.19,1.264,1.264,0,0,1,.26-.13,1.309,1.309,0,0,1,.28-.09,1.465,1.465,0,0,1,.59,0,1.485,1.485,0,0,1,.279.09,1.141,1.141,0,0,1,.25.13,1.419,1.419,0,0,1,.231.19,1.516,1.516,0,0,1,.44,1.06,1.665,1.665,0,0,1-.11.57,1.591,1.591,0,0,1-.14.26,1.088,1.088,0,0,1-.19.23,1.419,1.419,0,0,1-.231.19,1.878,1.878,0,0,1-.25.14,2.842,2.842,0,0,1-.279.08A1.534,1.534,0,0,1,27.28,33.39Z" fill="#3e4166"/>
  </g>
</svg>
