<svg xmlns="http://www.w3.org/2000/svg" width="39" height="43" viewBox="0 0 39 43">
  <title>User</title>
  <g>
    <path d="M19.5,26.308A11.086,11.086,0,0,1,8.436,15.841L8.206,11.7A11.081,11.081,0,0,1,19.27,0h.46A11.081,11.081,0,0,1,30.794,11.7l-.23,4.145A11.086,11.086,0,0,1,19.5,26.308ZM19.27,3A8.08,8.08,0,0,0,11.2,11.53l.23,4.145a8.081,8.081,0,0,0,16.138,0l.23-4.145A8.08,8.08,0,0,0,19.73,3Z" fill="#3e4166"/>
    <path d="M33.171,43H5.829A5.836,5.836,0,0,1,0,37.171,14.529,14.529,0,0,1,4.394,26.8a15.062,15.062,0,0,1,10.549-4.238,1.5,1.5,0,1,1,0,3,12.246,12.246,0,0,0-8.462,3.392A11.515,11.515,0,0,0,3,37.171,2.833,2.833,0,0,0,5.829,40H33.171A2.833,2.833,0,0,0,36,37.171a11.5,11.5,0,0,0-2.375-6.981A1.5,1.5,0,0,1,36,28.36a14.527,14.527,0,0,1,3,8.811A5.836,5.836,0,0,1,33.171,43Z" fill="#3e4166"/>
    <path d="M30.39,27.09a1.459,1.459,0,0,1-1.06-.441A1.357,1.357,0,0,1,29,26.16a1.383,1.383,0,0,1-.11-.57,1.358,1.358,0,0,1,.03-.29,1.274,1.274,0,0,1,.08-.28,1.3,1.3,0,0,1,.14-.26,1.365,1.365,0,0,1,.19-.23,1.9,1.9,0,0,1,.22-.19,1.264,1.264,0,0,1,.26-.13,1.518,1.518,0,0,1,.28-.09,1.465,1.465,0,0,1,.59,0,1.518,1.518,0,0,1,.28.09,1.264,1.264,0,0,1,.26.13,2,2,0,0,1,.23.19,1.65,1.65,0,0,1,.41.77,1.358,1.358,0,0,1,.03.29,1.391,1.391,0,0,1-.12.57,1.332,1.332,0,0,1-.32.489,1.609,1.609,0,0,1-.49.33A1.543,1.543,0,0,1,30.39,27.09Z" fill="#3e4166"/>
  </g>
</svg>
