<svg xmlns="http://www.w3.org/2000/svg" width="36.689" height="43" viewBox="0 0 36.689 43">
  <title>Webcam</title>
  <g>
    <path d="M18.5,37A18.5,18.5,0,1,1,36.624,14.773a1.5,1.5,0,0,1-2.939.6,15.5,15.5,0,1,0-2.607,12.186,1.5,1.5,0,1,1,2.432,1.756A18.563,18.563,0,0,1,18.5,37Z" fill="#3e4166"/>
    <path d="M35.189,23.26a1.5,1.5,0,0,1-1.5-1.5,1.508,1.508,0,0,1,.031-.29,1.38,1.38,0,0,1,.219-.54,2.24,2.24,0,0,1,.191-.23,1.487,1.487,0,0,1,1.349-.41,1.3,1.3,0,0,1,.281.09,1.333,1.333,0,0,1,.26.14,1.3,1.3,0,0,1,.23.18,1.35,1.35,0,0,1,.18.23,1.251,1.251,0,0,1,.139.26,1.311,1.311,0,0,1,.091.28,1.5,1.5,0,0,1,.029.29,1.48,1.48,0,0,1-.439,1.06,1.365,1.365,0,0,1-.23.19,2.226,2.226,0,0,1-.26.14,1.283,1.283,0,0,1-.281.08A1.413,1.413,0,0,1,35.189,23.26Z" fill="#3e4166"/>
    <path d="M31.5,43H5.5a1.5,1.5,0,0,1-1.471-1.794l2-10a1.5,1.5,0,0,1,2.942.588L7.33,40H29.67l-1.641-8.206a1.5,1.5,0,1,1,2.942-.588l2,10A1.5,1.5,0,0,1,31.5,43Z" fill="#3e4166"/>
    <path d="M18.5,29A10.5,10.5,0,1,1,29,18.5,10.512,10.512,0,0,1,18.5,29Zm0-18A7.5,7.5,0,1,0,26,18.5,7.508,7.508,0,0,0,18.5,11Z" fill="#3e4166"/>
    <path d="M22.5,17A3.5,3.5,0,1,1,26,13.5,3.5,3.5,0,0,1,22.5,17Zm0-4a.5.5,0,1,0,.5.5A.5.5,0,0,0,22.5,13Z" fill="#3e4166"/>
  </g>
</svg>
