<svg xmlns="http://www.w3.org/2000/svg" width="43" height="43" viewBox="0 0 43 43">
  <title>Artboard</title>
  <g>
    <path d="M38.5,28.19a1.5,1.5,0,0,1-1.061-.44,2.223,2.223,0,0,1-.189-.23,2.153,2.153,0,0,1-.141-.26,2.481,2.481,0,0,1-.079-.28,1.428,1.428,0,0,1-.03-.29,1.526,1.526,0,0,1,.03-.3c.02-.09.05-.19.079-.28s.091-.17.141-.26a2.1,2.1,0,0,1,.189-.22,1.549,1.549,0,0,1,2.121,0A1.5,1.5,0,0,1,40,26.69a1.428,1.428,0,0,1-.03.29,1.309,1.309,0,0,1-.09.28,1.264,1.264,0,0,1-.13.26,2.232,2.232,0,0,1-.19.23A1.5,1.5,0,0,1,38.5,28.19Z" fill="#3e4166"/>
    <path d="M38.5,34H4.5A1.5,1.5,0,0,1,3,32.5V5.5A1.5,1.5,0,0,1,4.5,4h34A1.5,1.5,0,0,1,40,5.5V21.156a1.5,1.5,0,0,1-3,0V7H6V31H38.5a1.5,1.5,0,0,1,0,3Z" fill="#3e4166"/>
    <path d="M41.5,34H1.5a1.5,1.5,0,0,1,0-3h40a1.5,1.5,0,0,1,0,3Z" fill="#3e4166"/>
    <path d="M21.5,7A1.5,1.5,0,0,1,20,5.5v-4a1.5,1.5,0,0,1,3,0v4A1.5,1.5,0,0,1,21.5,7Z" fill="#3e4166"/>
    <path d="M12.5,43a1.5,1.5,0,0,1-1.423-1.974l3-9a1.5,1.5,0,1,1,2.846.948l-3,9A1.5,1.5,0,0,1,12.5,43Z" fill="#3e4166"/>
    <path d="M30.5,43a1.5,1.5,0,0,1-1.423-1.026l-3-9a1.5,1.5,0,1,1,2.846-.948l3,9A1.5,1.5,0,0,1,30.5,43Z" fill="#3e4166"/>
    <path d="M29.5,26h-16a1.5,1.5,0,0,1-1.061-2.561l4-4a1.5,1.5,0,0,1,2.122,0l1.706,1.707,2.985-4.478a1.5,1.5,0,0,1,2.469-.04l5,7A1.5,1.5,0,0,1,29.5,26Zm-6.864-3h3.949l-2.042-2.86Zm-5.515,0h.758l-.379-.379Z" fill="#3e4166"/>
    <path d="M19,16a2,2,0,1,1,2-2A2,2,0,0,1,19,16Zm0-3a1,1,0,1,0,1,1A1,1,0,0,0,19,13Z" fill="#3e4166"/>
  </g>
</svg>
