<svg xmlns="http://www.w3.org/2000/svg" width="43" height="38.301" viewBox="0 0 43 38.301">
  <title>Broken Heart</title>
  <g>
    <path d="M21.5,38.3a1.5,1.5,0,0,1-1.061-.44L3.608,21.03A12.319,12.319,0,0,1,21.03,3.608l.47.47.47-.47a12.32,12.32,0,0,1,17.422,0h0a12.32,12.32,0,0,1,0,17.422L22.561,37.861A1.5,1.5,0,0,1,21.5,38.3ZM12.319,3a9.319,9.319,0,0,0-6.59,15.909L21.5,34.68,37.271,18.909a9.332,9.332,0,0,0,0-13.18h0a9.321,9.321,0,0,0-13.18,0L22.561,7.26a1.5,1.5,0,0,1-2.122,0l-1.53-1.53A9.254,9.254,0,0,0,12.319,3Z" fill="#3e4166"/>
    <path d="M22.19,29.37a1.412,1.412,0,0,1-.58-.12,1.188,1.188,0,0,1-.25-.13,1.454,1.454,0,0,1-.23-.19,2.11,2.11,0,0,1-.19-.23,2.148,2.148,0,0,1-.14-.26,2.288,2.288,0,0,1-.08-.28,1.417,1.417,0,0,1,0-.58,2.288,2.288,0,0,1,.08-.28,2.148,2.148,0,0,1,.14-.26,1.573,1.573,0,0,1,.42-.42,2.013,2.013,0,0,1,.25-.14c.09-.03.19-.06.28-.08a1.465,1.465,0,0,1,.59,0,2.288,2.288,0,0,1,.28.08,2.148,2.148,0,0,1,.26.14,2.11,2.11,0,0,1,.23.19,1.018,1.018,0,0,1,.18.23.939.939,0,0,1,.14.26,1.309,1.309,0,0,1,.09.28,1.417,1.417,0,0,1,0,.58,1.309,1.309,0,0,1-.09.28.939.939,0,0,1-.14.26,1.3,1.3,0,0,1-.18.23,2.11,2.11,0,0,1-.23.19,1.264,1.264,0,0,1-.26.13,1.309,1.309,0,0,1-.28.09A1.428,1.428,0,0,1,22.19,29.37Z" fill="#3e4166"/>
    <path d="M24.5,24.651a1.5,1.5,0,0,1-1.341-2.172l.39-.779L16.7,17.422a1.5,1.5,0,0,1-.6-1.829l4-10a1.5,1.5,0,0,1,2.786,1.115l-3.535,8.835L26.3,19.878a1.5,1.5,0,0,1,.547,1.943l-1,2A1.5,1.5,0,0,1,24.5,24.651Z" fill="#3e4166"/>
  </g>
</svg>
