<svg xmlns="http://www.w3.org/2000/svg" width="42.509" height="43" viewBox="0 0 42.509 43">
  <title>Dislike</title>
  <g>
    <path d="M11.5,29H5.542A5.548,5.548,0,0,1,0,23.458V5.542A5.548,5.548,0,0,1,5.542,0H11.5A1.5,1.5,0,0,1,13,1.5V15.917a1.5,1.5,0,0,1-3,0V3H5.542A2.545,2.545,0,0,0,3,5.542V23.458A2.545,2.545,0,0,0,5.542,26H11.5a1.5,1.5,0,0,1,0,3Z" fill="#3e4166"/>
    <path d="M11.5,23.33a1.351,1.351,0,0,1-.29-.03,1.274,1.274,0,0,1-.28-.08,2.148,2.148,0,0,1-.26-.14,1.413,1.413,0,0,1-.231-.19A1.484,1.484,0,0,1,10,21.83a1.519,1.519,0,0,1,.439-1.06,1.345,1.345,0,0,1,.231-.18,1.3,1.3,0,0,1,.26-.14,1.291,1.291,0,0,1,.28-.09,1.417,1.417,0,0,1,.58,0,1.3,1.3,0,0,1,.279.09,1.285,1.285,0,0,1,.261.14,1.3,1.3,0,0,1,.23.18A1.516,1.516,0,0,1,13,21.83a1.481,1.481,0,0,1-.44,1.06A1.5,1.5,0,0,1,11.5,23.33Z" fill="#3e4166"/>
    <path d="M20.5,43a1.5,1.5,0,0,1-1.471-1.206l-.776-3.882a12.207,12.207,0,0,0-5.914-8.2L10.756,28.8a1.5,1.5,0,1,1,1.488-2.6l1.583.9a15.2,15.2,0,0,1,7.367,10.222l.509,2.543A5.509,5.509,0,0,0,26,34.5v-8A1.5,1.5,0,0,1,27.5,25h9.813a2.2,2.2,0,0,0,2.179-2.469L37.4,5.806a2.187,2.187,0,0,0-2.1-1.923L11.444,3a1.5,1.5,0,0,1,.112-3L35.414.885a5.176,5.176,0,0,1,4.964,4.549l2.091,16.724A5.2,5.2,0,0,1,37.313,28H29v6.5A8.51,8.51,0,0,1,20.5,43Z" fill="#3e4166"/>
    <path d="M39.5,20h-7a1.5,1.5,0,0,1,0-3h7a1.5,1.5,0,0,1,0,3Z" fill="#3e4166"/>
    <path d="M38.5,12h-6a1.5,1.5,0,0,1,0-3h6a1.5,1.5,0,0,1,0,3Z" fill="#3e4166"/>
  </g>
</svg>
