<svg xmlns="http://www.w3.org/2000/svg" width="43" height="43" viewBox="0 0 43 43">
  <title>Expand</title>
  <g>
    <path d="M41.5,43H1.5A1.5,1.5,0,0,1,0,41.5V1.5A1.5,1.5,0,0,1,1.5,0h20a1.5,1.5,0,0,1,0,3H3V40H40V27.063a1.5,1.5,0,0,1,3,0V41.5A1.5,1.5,0,0,1,41.5,43Z" fill="#3e4166"/>
    <path d="M41.5,23a1.5,1.5,0,0,1-1.061-.44A1.457,1.457,0,0,1,40,21.5a1.5,1.5,0,0,1,.439-1.06,1.549,1.549,0,0,1,2.121,0A1.5,1.5,0,0,1,43,21.5a1.562,1.562,0,0,1-.11.57A1.515,1.515,0,0,1,41.5,23Z" fill="#3e4166"/>
    <path d="M11.5,33a1.5,1.5,0,0,1-1.061-2.561l30-30a1.5,1.5,0,0,1,2.122,2.122l-30,30A1.5,1.5,0,0,1,11.5,33Z" fill="#3e4166"/>
    <path d="M41.5,14A1.5,1.5,0,0,1,40,12.5V3H30.5a1.5,1.5,0,0,1,0-3h11A1.5,1.5,0,0,1,43,1.5v11A1.5,1.5,0,0,1,41.5,14Z" fill="#3e4166"/>
  </g>
</svg>
