<svg xmlns="http://www.w3.org/2000/svg" width="42.979" height="37.133" viewBox="0 0 42.979 37.133">
  <title>Hotspot</title>
  <g>
    <path d="M21.49,26.99a5.5,5.5,0,1,1,5.5-5.5A5.506,5.506,0,0,1,21.49,26.99Zm0-8a2.5,2.5,0,1,0,2.5,2.5A2.5,2.5,0,0,0,21.49,18.99Z" fill="#3e4166"/>
    <path d="M29.969,31.48a1.5,1.5,0,0,1-1.06-.45,1.481,1.481,0,0,1-.44-1.06,1.5,1.5,0,0,1,2.561-1.06,1.531,1.531,0,0,1,.45,1.06,1.537,1.537,0,0,1-1.511,1.51Z" fill="#3e4166"/>
    <path d="M13,31.475a1.493,1.493,0,0,1-1.06-.439,13.5,13.5,0,1,1,22.5-5.745,1.5,1.5,0,0,1-2.879-.842,10.5,10.5,0,1,0-17.5,4.466A1.5,1.5,0,0,1,13,31.475Z" fill="#3e4166"/>
    <path d="M35.632,37.133a1.5,1.5,0,0,1-1.06-2.561,18.5,18.5,0,1,0-26.165,0,1.5,1.5,0,1,1-2.121,2.121,21.5,21.5,0,1,1,30.407,0A1.5,1.5,0,0,1,35.632,37.133Z" fill="#3e4166"/>
  </g>
</svg>
