<svg xmlns="http://www.w3.org/2000/svg" width="42.509" height="43" viewBox="0 0 42.509 43">
  <title>Like</title>
  <g>
    <path d="M11.5,43H5.542A5.548,5.548,0,0,1,0,37.458V19.542A5.548,5.548,0,0,1,5.542,14H11.5A1.5,1.5,0,0,1,13,15.5V29.917a1.5,1.5,0,0,1-3,0V17H5.542A2.545,2.545,0,0,0,3,19.542V37.458A2.545,2.545,0,0,0,5.542,40H11.5a1.5,1.5,0,0,1,0,3Z" fill="#3e4166"/>
    <path d="M11.5,37.33a1.351,1.351,0,0,1-.29-.03,1.274,1.274,0,0,1-.28-.08,2.148,2.148,0,0,1-.26-.14,1.089,1.089,0,0,1-.231-.19,1.483,1.483,0,0,1-.409-1.35,2.481,2.481,0,0,1,.079-.28A2.153,2.153,0,0,1,10.25,35a2.223,2.223,0,0,1,.189-.23,1.046,1.046,0,0,1,.231-.18,1.3,1.3,0,0,1,.26-.14,1.291,1.291,0,0,1,.28-.09,1.5,1.5,0,0,1,1.35.41,2.232,2.232,0,0,1,.19.23,2.148,2.148,0,0,1,.14.26,2.288,2.288,0,0,1,.08.28,1.5,1.5,0,0,1,.03.29,1.481,1.481,0,0,1-.44,1.06A1.5,1.5,0,0,1,11.5,37.33Z" fill="#3e4166"/>
    <path d="M11.5,43a1.5,1.5,0,0,1-.055-3L35.3,39.117a2.187,2.187,0,0,0,2.1-1.923L39.492,20.47A2.2,2.2,0,0,0,37.313,18H27.5A1.5,1.5,0,0,1,26,16.5v-8a5.509,5.509,0,0,0-4.3-5.367l-.509,2.543A15.2,15.2,0,0,1,13.827,15.9l-1.583.9a1.5,1.5,0,1,1-1.488-2.6l1.583-.905a12.207,12.207,0,0,0,5.914-8.2l.776-3.882A1.5,1.5,0,0,1,20.5,0,8.51,8.51,0,0,1,29,8.5V15h8.313a5.2,5.2,0,0,1,5.156,5.842L40.378,37.566a5.176,5.176,0,0,1-4.964,4.549L11.556,43Z" fill="#3e4166"/>
    <path d="M39.5,26h-7a1.5,1.5,0,0,1,0-3h7a1.5,1.5,0,0,1,0,3Z" fill="#3e4166"/>
    <path d="M38.5,34h-6a1.5,1.5,0,0,1,0-3h6a1.5,1.5,0,0,1,0,3Z" fill="#3e4166"/>
  </g>
</svg>
