<svg xmlns="http://www.w3.org/2000/svg" width="31" height="43" viewBox="0 0 31 43">
  <title>Location 3</title>
  <g>
    <path d="M20.29,35.56a1.52,1.52,0,0,1-1.06-.44,1.443,1.443,0,0,1-.32-.49,1.388,1.388,0,0,1-.12-.57A1.5,1.5,0,0,1,19.23,33a1.537,1.537,0,0,1,2.12,0,1.481,1.481,0,0,1,.44,1.06,1.38,1.38,0,0,1-.11.57,1.639,1.639,0,0,1-.33.49,1.377,1.377,0,0,1-.48.319A1.419,1.419,0,0,1,20.29,35.56Z" fill="#3e4166"/>
    <path d="M15.5,43A1.5,1.5,0,0,1,14,41.5V30.928A15.5,15.5,0,1,1,31,15.5c0,4.334-1.055,6.379-5.969,14a1.5,1.5,0,0,1-2.522-1.625C27.384,20.315,28,18.927,28,15.5A12.5,12.5,0,1,0,15.5,28,1.5,1.5,0,0,1,17,29.5v12A1.5,1.5,0,0,1,15.5,43Z" fill="#3e4166"/>
    <path d="M15.5,22A6.5,6.5,0,1,1,22,15.5,6.508,6.508,0,0,1,15.5,22Zm0-10A3.5,3.5,0,1,0,19,15.5,3.5,3.5,0,0,0,15.5,12Z" fill="#3e4166"/>
  </g>
</svg>
