<svg xmlns="http://www.w3.org/2000/svg" width="43" height="35" viewBox="0 0 43 35">
  <title>Mail</title>
  <g>
    <path d="M41.5,35H1.5A1.5,1.5,0,0,1,0,33.5V1.5A1.5,1.5,0,0,1,1.5,0h40A1.5,1.5,0,0,1,43,1.5v32A1.5,1.5,0,0,1,41.5,35ZM3,32H40V3H3Z" fill="#3e4166"/>
    <path d="M21.5,22a1.494,1.494,0,0,1-1.033-.412l-20-19A1.5,1.5,0,0,1,2.533.413L21.5,18.431,40.467.413a1.5,1.5,0,0,1,2.066,2.175l-20,19A1.494,1.494,0,0,1,21.5,22Z" fill="#3e4166"/>
    <path d="M7.61,29.273a1.5,1.5,0,0,1-1.026-2.595l9.89-9.272a1.5,1.5,0,0,1,2.052,2.188L8.635,28.867A1.494,1.494,0,0,1,7.61,29.273Z" fill="#3e4166"/>
    <path d="M30.788,24.958a1.5,1.5,0,0,1-1.026-.406l-5.288-4.958a1.5,1.5,0,1,1,2.052-2.188l5.288,4.958a1.5,1.5,0,0,1-1.026,2.594Z" fill="#3e4166"/>
    <path d="M35.39,29.27a1.358,1.358,0,0,1-.29-.03,2.288,2.288,0,0,1-.28-.08,2.148,2.148,0,0,1-.26-.14,2.11,2.11,0,0,1-.23-.19,1.5,1.5,0,0,1-.44-1.06,1.516,1.516,0,0,1,.44-1.06,1.3,1.3,0,0,1,.23-.18.939.939,0,0,1,.26-.14,1.309,1.309,0,0,1,.28-.09,1.5,1.5,0,1,1,.29,2.97Z" fill="#3e4166"/>
  </g>
</svg>
