<svg xmlns="http://www.w3.org/2000/svg" width="43" height="41.947" viewBox="0 0 43 41.947">
  <title>Messenger</title>
  <g>
    <path d="M9.921,41.947a1.5,1.5,0,0,1-1.495-1.376l-.594-7.138A17.934,17.934,0,0,1,0,18.868C0,8.464,9.645,0,21.5,0S43,8.464,43,18.868,33.355,37.736,21.5,37.736a24.251,24.251,0,0,1-4.248-.373l-6.5,4.332A1.5,1.5,0,0,1,9.921,41.947ZM21.5,3C11.3,3,3,10.118,3,18.868A15.1,15.1,0,0,0,10.105,31.36a1.5,1.5,0,0,1,.658,1.121l.442,5.307,4.9-3.263a1.508,1.508,0,0,1,1.136-.22,21.072,21.072,0,0,0,4.264.431c10.2,0,18.5-7.118,18.5-15.868S31.7,3,21.5,3Z" fill="#3e4166"/>
    <path d="M32.03,16.684a1.482,1.482,0,0,1-1.06-.441,1.456,1.456,0,0,1-.44-1.059,1.413,1.413,0,0,1,.03-.29.9.9,0,0,1,.08-.281,2.134,2.134,0,0,1,.14-.259,1.333,1.333,0,0,1,.19-.231,1.548,1.548,0,0,1,2.12,0,1.517,1.517,0,0,1,.44,1.061,1.5,1.5,0,0,1-.44,1.059,1.609,1.609,0,0,1-.49.33A1.543,1.543,0,0,1,32.03,16.684Z" fill="#3e4166"/>
    <path d="M12.028,23a1.5,1.5,0,0,1-.874-2.721l7.368-5.263a1.5,1.5,0,0,1,2.044.283l3.3,4.129,2.345-1.76a1.5,1.5,0,0,1,1.8,2.4L24.505,22.7a1.5,1.5,0,0,1-2.071-.262l-3.323-4.156L12.9,22.721A1.5,1.5,0,0,1,12.028,23Z" fill="#3e4166"/>
  </g>
</svg>
