<svg xmlns="http://www.w3.org/2000/svg" width="37" height="43" viewBox="0 0 37 43">
  <title>Notification</title>
  <g>
    <path d="M31.5,24.79a1.516,1.516,0,0,1-1.06-.44A1.481,1.481,0,0,1,30,23.29a1.428,1.428,0,0,1,.03-.29,2.288,2.288,0,0,1,.08-.28,2.148,2.148,0,0,1,.14-.26,2.11,2.11,0,0,1,.19-.23,1.548,1.548,0,0,1,2.12,0A1.516,1.516,0,0,1,33,23.29a1.5,1.5,0,0,1-.44,1.06A1.516,1.516,0,0,1,31.5,24.79Z" fill="#3e4166"/>
    <path d="M31.5,39H5.5A5.5,5.5,0,0,1,4,28.208V17.5a14.5,14.5,0,0,1,29,0,1.5,1.5,0,0,1-3,0,11.5,11.5,0,0,0-23,0v12A1.5,1.5,0,0,1,5.5,31a2.5,2.5,0,0,0,0,5h26a2.5,2.5,0,0,0,0-5,1.5,1.5,0,0,1,0-3,5.5,5.5,0,0,1,0,11Z" fill="#3e4166"/>
    <path d="M18.5,43A5.506,5.506,0,0,1,13,37.5a1.5,1.5,0,0,1,3,0,2.5,2.5,0,0,0,5,0,1.5,1.5,0,0,1,3,0A5.506,5.506,0,0,1,18.5,43Z" fill="#3e4166"/>
    <path d="M19.5,6a1.5,1.5,0,0,1-1-.382A1.5,1.5,0,0,1,16,4.5v-2a2.5,2.5,0,0,1,5,0v2A1.5,1.5,0,0,1,19.5,6Z" fill="#3e4166"/>
  </g>
</svg>
