<svg xmlns="http://www.w3.org/2000/svg" width="43" height="40" viewBox="0 0 43 40">
  <title>Reddit</title>
  <g>
    <g>
      <path d="M21.5,40C10.748,40,2,33.72,2,26s8.748-14,19.5-14S41,18.28,41,26a11.9,11.9,0,0,1-4.409,8.9,1.5,1.5,0,1,1-1.974-2.257A8.851,8.851,0,0,0,38,26c0-6.065-7.4-11-16.5-11S5,19.935,5,26s7.4,11,16.5,11c.688,0,1.382-.029,2.061-.087a1.5,1.5,0,0,1,.253,2.99C23.051,39.968,22.272,40,21.5,40Z" fill="#3e4166"/>
      <path d="M29.65,38.649a1.4,1.4,0,0,1-.57-.119,1.434,1.434,0,0,1-.49-.32,1.5,1.5,0,0,1-.44-1.061,1.524,1.524,0,0,1,.03-.3,1.551,1.551,0,0,1,.09-.281,1.079,1.079,0,0,1,.14-.259,1.2,1.2,0,0,1,.18-.22,1.422,1.422,0,0,1,.23-.191,2.292,2.292,0,0,1,.26-.139,2.123,2.123,0,0,1,.28-.08,1.465,1.465,0,0,1,.59,0,2.674,2.674,0,0,1,.28.08,2.145,2.145,0,0,1,.25.139,1.093,1.093,0,0,1,.23.191,1.911,1.911,0,0,1,.19.22c.05.089.1.169.14.259a1.5,1.5,0,0,1,.08.281,1.524,1.524,0,0,1,.03.3,1.458,1.458,0,0,1-.44,1.061,1.394,1.394,0,0,1-.48.32A1.487,1.487,0,0,1,29.65,38.649Z" fill="#3e4166"/>
      <path d="M39.6,25.537a1.5,1.5,0,0,1-.754-2.8,2.31,2.31,0,0,0-1.155-4.31,2.269,2.269,0,0,0-1.1.277,1.5,1.5,0,0,1-1.435-2.635,5.31,5.31,0,0,1,5.192,9.264A1.493,1.493,0,0,1,39.6,25.537Z" fill="#3e4166"/>
      <path d="M3.4,25.537a1.493,1.493,0,0,1-.75-.2,5.31,5.31,0,0,1,5.192-9.264,1.5,1.5,0,0,1-1.435,2.635,2.269,2.269,0,0,0-1.1-.277,2.31,2.31,0,0,0-1.155,4.31,1.5,1.5,0,0,1-.754,2.8Z" fill="#3e4166"/>
    </g>
    <path d="M21.5,14a1.521,1.521,0,0,1-.376-.048,1.5,1.5,0,0,1-1.077-1.828A12.406,12.406,0,0,1,24.607,5.3a12.2,12.2,0,0,1,5.7-2.282,1.5,1.5,0,1,1,.384,2.974,9.239,9.239,0,0,0-4.3,1.718,9.4,9.4,0,0,0-3.441,5.171A1.5,1.5,0,0,1,21.5,14Z" fill="#3e4166"/>
    <path d="M33.5,9A4.5,4.5,0,1,1,38,4.5,4.505,4.505,0,0,1,33.5,9Zm0-6A1.5,1.5,0,1,0,35,4.5,1.5,1.5,0,0,0,33.5,3Z" fill="#3e4166"/>
    <path d="M21.5,33a17.36,17.36,0,0,1-8.768-2.212,1.5,1.5,0,1,1,1.536-2.576A14.49,14.49,0,0,0,21.5,30a15.2,15.2,0,0,0,7.233-1.789,1.5,1.5,0,0,1,1.534,2.578A17.989,17.989,0,0,1,21.5,33Z" fill="#3e4166"/>
    <path d="M17,25a2,2,0,1,1,2-2A2,2,0,0,1,17,25Zm0-3a1,1,0,1,0,1,1A1,1,0,0,0,17,22Z" fill="#3e4166"/>
    <path d="M26,25a2,2,0,1,1,2-2A2,2,0,0,1,26,25Zm0-3a1,1,0,1,0,1,1A1,1,0,0,0,26,22Z" fill="#3e4166"/>
  </g>
</svg>
