<svg xmlns="http://www.w3.org/2000/svg" width="37" height="42.993" viewBox="0 0 37 42.993">
  <title>Sad Face</title>
  <g>
    <path d="M10.5,16.993a1.5,1.5,0,0,1-.672-2.842l4-2a1.5,1.5,0,1,1,1.342,2.684l-4,2A1.5,1.5,0,0,1,10.5,16.993Z" fill="#3e4166"/>
    <path d="M26.5,16.993a1.507,1.507,0,0,1-.67-.158l-4-2a1.5,1.5,0,0,1,1.342-2.684l4,2a1.5,1.5,0,0,1-.672,2.842Z" fill="#3e4166"/>
    <path d="M26.5,30.993a1.5,1.5,0,0,1-1.349-.843,7.4,7.4,0,0,0-13.3,0,1.5,1.5,0,1,1-2.7-1.314,10.4,10.4,0,0,1,18.7,0A1.5,1.5,0,0,1,26.5,30.993Z" fill="#3e4166"/>
    <path d="M18.5,42.993A18.511,18.511,0,0,1,.008,24.747q-.015-1.612,0-3.266C.04,17.116.227,12.7.559,8.347A7.51,7.51,0,0,1,6.014,1.718a46.236,46.236,0,0,1,25.055.023,7.463,7.463,0,0,1,5.373,6.6c.332,4.35.518,8.769.552,13.136q.014,1.654,0,3.266a1.5,1.5,0,0,1-1.5,1.486h-.013a1.5,1.5,0,0,1-1.487-1.513q.015-1.587,0-3.215c-.033-4.3-.216-8.65-.545-12.931a4.449,4.449,0,0,0-3.2-3.946A43.261,43.261,0,0,0,6.824,4.606a4.5,4.5,0,0,0-3.273,3.97c-.328,4.281-.512,8.631-.545,12.929q-.014,1.628,0,3.215A15.507,15.507,0,0,0,27.939,36.8a1.5,1.5,0,1,1,1.824,2.38A18.362,18.362,0,0,1,18.5,42.993Z" fill="#3e4166"/>
    <path d="M33.3,34.392a1.4,1.4,0,0,1-.57-.119,1.344,1.344,0,0,1-.49-.32,1.652,1.652,0,0,1-.33-.49,1.564,1.564,0,0,1-.11-.571,1.524,1.524,0,0,1,.03-.3,1.551,1.551,0,0,1,.09-.281,1.531,1.531,0,0,1,.13-.259,1.911,1.911,0,0,1,.19-.22,1.372,1.372,0,0,1,.23-.191,2.292,2.292,0,0,1,.26-.139,2.123,2.123,0,0,1,.28-.08,1.488,1.488,0,0,1,1.35.41,1.911,1.911,0,0,1,.19.22c.05.089.1.169.14.259s.06.191.08.281a1.524,1.524,0,0,1,.03.3,1.564,1.564,0,0,1-.11.571,1.652,1.652,0,0,1-.33.49,1.344,1.344,0,0,1-.49.32A1.4,1.4,0,0,1,33.3,34.392Z" fill="#3e4166"/>
  </g>
</svg>
