<svg xmlns="http://www.w3.org/2000/svg" width="37" height="42.993" viewBox="0 0 37 42.993">
  <title>Smiley Face</title>
  <g>
    <path d="M18.5,42.993A18.511,18.511,0,0,1,.008,24.747q-.015-1.612,0-3.266C.04,17.123.226,12.7.559,8.347A7.512,7.512,0,0,1,6.014,1.718a46.232,46.232,0,0,1,25.054.023,7.46,7.46,0,0,1,5.373,6.6c.333,4.354.519,8.774.553,13.136q.014,1.654,0,3.266a1.5,1.5,0,0,1-1.5,1.486h-.014a1.5,1.5,0,0,1-1.487-1.513q.015-1.587,0-3.215c-.033-4.294-.216-8.645-.545-12.931a4.451,4.451,0,0,0-3.2-3.946A43.248,43.248,0,0,0,6.824,4.606,4.505,4.505,0,0,0,3.55,8.576c-.327,4.289-.51,8.639-.544,12.929q-.014,1.628,0,3.215A15.506,15.506,0,0,0,27.938,36.8a1.5,1.5,0,1,1,1.824,2.38A18.352,18.352,0,0,1,18.5,42.993Z" fill="#3e4166"/>
    <path d="M33.3,34.392a1.5,1.5,0,0,1-1.06-.439,1.652,1.652,0,0,1-.33-.49,1.564,1.564,0,0,1-.11-.571,1.524,1.524,0,0,1,.03-.3,1.551,1.551,0,0,1,.09-.281,1.531,1.531,0,0,1,.13-.259,1.911,1.911,0,0,1,.19-.22,1.548,1.548,0,0,1,2.12,0,1.911,1.911,0,0,1,.19.22c.05.089.1.169.14.259s.06.191.08.281a1.524,1.524,0,0,1,.03.3,1.564,1.564,0,0,1-.11.571,1.652,1.652,0,0,1-.33.49,1.394,1.394,0,0,1-.48.32A1.487,1.487,0,0,1,33.3,34.392Z" fill="#3e4166"/>
    <path d="M14.5,14.993h-4a1.5,1.5,0,0,1,0-3h4a1.5,1.5,0,0,1,0,3Z" fill="#3e4166"/>
    <path d="M26.5,14.993h-4a1.5,1.5,0,0,1,0-3h4a1.5,1.5,0,0,1,0,3Z" fill="#3e4166"/>
    <path d="M18.5,30.993A10.461,10.461,0,0,1,9.152,25.15a1.5,1.5,0,1,1,2.7-1.314,7.4,7.4,0,0,0,13.3,0,1.5,1.5,0,1,1,2.7,1.314A10.46,10.46,0,0,1,18.5,30.993Z" fill="#3e4166"/>
  </g>
</svg>
