<svg xmlns="http://www.w3.org/2000/svg" width="40.946" height="42.553" viewBox="0 0 40.946 42.553">
  <title>Snapchat</title>
  <g>
    <path d="M38.133,35.439a1.47,1.47,0,0,1-.58-.12,1.368,1.368,0,0,1-.48-.319,1.475,1.475,0,0,1-.44-1.061,1.6,1.6,0,0,1,.029-.3c.021-.09.051-.19.081-.281s.089-.17.14-.259a2,2,0,0,1,.19-.22,2.219,2.219,0,0,1,.219-.191c.091-.049.171-.1.261-.139a1.568,1.568,0,0,1,.29-.08,1.417,1.417,0,0,1,.58,0,1.29,1.29,0,0,1,.28.08,2.381,2.381,0,0,1,.26.139,2.478,2.478,0,0,1,.23.191,2,2,0,0,1,.19.22,1.569,1.569,0,0,1,.13.259,1.634,1.634,0,0,1,.09.281,1.6,1.6,0,0,1,.03.3A1.5,1.5,0,0,1,39.193,35a1.416,1.416,0,0,1-.49.319A1.391,1.391,0,0,1,38.133,35.439Z" fill="#3e4166"/>
    <path d="M20.473,42.553a9.746,9.746,0,0,1-3.074-.5L11.768,40.18A3.5,3.5,0,0,0,10.661,40H7.4A5.479,5.479,0,0,1,3.1,37.937L2.515,37.2a5.5,5.5,0,0,1,.368-7.285l2.38-2.427a7.239,7.239,0,0,0,2.081-5.1V13.129a13.129,13.129,0,0,1,26.258,0V22.4a7.239,7.239,0,0,0,2.081,5.1,1.5,1.5,0,0,1-2.143,2.1A10.224,10.224,0,0,1,30.6,22.4V13.129a10.129,10.129,0,0,0-20.258,0V22.4a10.224,10.224,0,0,1-2.938,7.2l-2.38,2.427a2.5,2.5,0,0,0-.168,3.311l.586.733A2.488,2.488,0,0,0,7.4,37h3.265a6.477,6.477,0,0,1,2.056.334l5.631,1.877a6.759,6.759,0,0,0,4.25,0l5.631-1.877A6.477,6.477,0,0,1,30.285,37h2.521a1.5,1.5,0,0,1,0,3H30.285a3.507,3.507,0,0,0-1.107.18l-5.631,1.877A9.746,9.746,0,0,1,20.473,42.553Z" fill="#3e4166"/>
    <path d="M8.843,22.585a1.49,1.49,0,0,1-.831-.252l-7.344-4.9a1.5,1.5,0,0,1,1.664-2.5l7.344,4.9a1.5,1.5,0,0,1-.833,2.748Z" fill="#3e4166"/>
    <path d="M32.1,22.585a1.5,1.5,0,0,1-.833-2.748l7.344-4.9a1.5,1.5,0,0,1,1.664,2.5l-7.344,4.9A1.49,1.49,0,0,1,32.1,22.585Z" fill="#3e4166"/>
  </g>
</svg>
