<svg xmlns="http://www.w3.org/2000/svg" width="43" height="43" viewBox="0 0 43 43">
  <title>Tumblr</title>
  <g>
    <path d="M37.5,43H5.5A5.507,5.507,0,0,1,0,37.5V5.5A5.507,5.507,0,0,1,5.5,0h32A5.507,5.507,0,0,1,43,5.5v32A5.507,5.507,0,0,1,37.5,43ZM5.5,3A2.5,2.5,0,0,0,3,5.5v32A2.5,2.5,0,0,0,5.5,40h32A2.5,2.5,0,0,0,40,37.5V5.5A2.5,2.5,0,0,0,37.5,3Z" fill="#3e4166"/>
    <path d="M26.06,32.689a1.439,1.439,0,0,1-.581-.12A1.283,1.283,0,0,1,25,32.24a1.452,1.452,0,0,1-.44-1.051,1.5,1.5,0,0,1,1.79-1.479,1.255,1.255,0,0,1,.28.09,1.353,1.353,0,0,1,.26.139,2.156,2.156,0,0,1,.23.181,1.524,1.524,0,0,1,.44,1.069,1.518,1.518,0,0,1-1.5,1.5Z" fill="#3e4166"/>
    <path d="M20.765,30.434a1.5,1.5,0,0,1-1.4-.963A5.475,5.475,0,0,1,19,27.5v-15a1.5,1.5,0,0,1,3,0v15a2.5,2.5,0,0,0,.165.9,1.5,1.5,0,0,1-.863,1.938A1.518,1.518,0,0,1,20.765,30.434Z" fill="#3e4166"/>
    <path d="M24.5,19h-8a1.5,1.5,0,0,1,0-3h8a1.5,1.5,0,0,1,0,3Z" fill="#3e4166"/>
  </g>
</svg>
