<svg xmlns="http://www.w3.org/2000/svg" width="42.231" height="40.187" viewBox="0 0 42.231 40.187">
  <title>Twitter</title>
  <g>
    <path d="M12.466,40.187a1.5,1.5,0,0,1-1.061-.44,1.5,1.5,0,0,1,0-2.119,1.547,1.547,0,0,1,2.121,0,1.481,1.481,0,0,1,.44,1.059,1.519,1.519,0,0,1-.44,1.06A1.5,1.5,0,0,1,12.466,40.187Z" fill="#3e4166"/>
    <path d="M19.063,39.78a1.5,1.5,0,0,1-.226-2.982c8-1.23,14.361-5.269,17.018-10.806a21.785,21.785,0,0,0,.463-16.676c-1.186-3-2.963-5.087-5-5.879a7.409,7.409,0,0,0-7.731,1.681c-1.964,2.117-2.325,5.555-.921,8.758a1.5,1.5,0,0,1-1.59,2.087A37.749,37.749,0,0,1,8.689,11.918,37.04,37.04,0,0,1,3.056,8.209c-.273,4.029.12,11.367,5.34,17.455a22.116,22.116,0,0,0,5.769,4.767,1.5,1.5,0,0,1,.139,2.512A51.008,51.008,0,0,1,3.546,38.725a1.5,1.5,0,1,1-1.135-2.777,52.857,52.857,0,0,0,8.283-4.176A25.014,25.014,0,0,1,6.12,27.618C-1.64,18.568.023,7.165.435,4.971a1.5,1.5,0,0,1,2.492-.825A34.611,34.611,0,0,0,10.1,9.272a34.421,34.421,0,0,0,9,3.287,10.567,10.567,0,0,1,2.288-9.482A10.411,10.411,0,0,1,32.4.64c2.827,1.1,5.209,3.788,6.706,7.573a24.925,24.925,0,0,1-.548,19.076C35.474,33.72,28.272,38.383,19.293,39.763A1.629,1.629,0,0,1,19.063,39.78Z" fill="#3e4166"/>
    <path d="M13.138,26.085a16.891,16.891,0,0,1-1.757-.091,20.7,20.7,0,0,1-7.657-2.605,1.5,1.5,0,0,1,1.523-2.584,17.493,17.493,0,0,0,6.445,2.205,14.044,14.044,0,0,0,2.9,0,1.5,1.5,0,1,1,.307,2.984A16.949,16.949,0,0,1,13.138,26.085Z" fill="#3e4166"/>
    <path d="M38.077,11.275a1.483,1.483,0,0,1-.778-.219,1.5,1.5,0,0,1-.5-2.061L37.948,7.1l-1.712.114a1.5,1.5,0,0,1-.2-2.995l4.594-.3A1.5,1.5,0,0,1,42.012,6.2L39.36,10.555A1.5,1.5,0,0,1,38.077,11.275Z" fill="#3e4166"/>
  </g>
</svg>
