<svg xmlns="http://www.w3.org/2000/svg" width="43" height="42" viewBox="0 0 43 42">
  <title>Users</title>
  <g>
    <path d="M16.743,27.76a9.918,9.918,0,0,1-2.139-.234A9.761,9.761,0,0,1,7.14,18.438l-.182-3.28A9.625,9.625,0,0,1,16.568,5h.39a9.624,9.624,0,0,1,9.61,10.158l-.2,3.515a9.615,9.615,0,0,1-9.63,9.087ZM16.568,8a6.625,6.625,0,0,0-6.615,6.992l.182,3.279A6.757,6.757,0,0,0,15.249,24.6a6.636,6.636,0,0,0,8.129-6.09l.2-3.515A6.625,6.625,0,0,0,16.958,8Z" fill="#3e4166"/>
    <path d="M28.867,42H5.133A5.139,5.139,0,0,1,0,36.866a12.505,12.505,0,0,1,3.855-9.007,13.279,13.279,0,0,1,9.221-3.651,1.5,1.5,0,0,1,0,3,10.433,10.433,0,0,0-7.15,2.821A9.493,9.493,0,0,0,3,36.866,2.136,2.136,0,0,0,5.133,39H28.867A2.136,2.136,0,0,0,31,36.866a9.493,9.493,0,0,0-2.926-6.837,10.433,10.433,0,0,0-7.15-2.821,1.5,1.5,0,0,1,0-3,13.279,13.279,0,0,1,9.221,3.651A12.505,12.505,0,0,1,34,36.866,5.139,5.139,0,0,1,28.867,42Z" fill="#3e4166"/>
    <path d="M29.4,18.674a7.916,7.916,0,0,1-5.15-1.891A1.5,1.5,0,0,1,26.193,14.5a4.977,4.977,0,0,0,4.216,1.076A5.114,5.114,0,0,0,34.343,10.8l.143-2.577A4.944,4.944,0,0,0,29.55,3h-.31A4.942,4.942,0,0,0,24.3,8.218l.013.236a1.5,1.5,0,0,1-3,.162l-.012-.234A7.941,7.941,0,0,1,29.24,0h.31a7.943,7.943,0,0,1,7.931,8.384l-.143,2.577a8.044,8.044,0,0,1-6.349,7.557A8.252,8.252,0,0,1,29.4,18.674Z" fill="#3e4166"/>
    <path d="M35.29,30a1.516,1.516,0,0,1-1.06-.44,1.5,1.5,0,0,1-.44-1.06,1.5,1.5,0,0,1,1.79-1.47,2.481,2.481,0,0,1,.28.079,1.593,1.593,0,0,1,.26.141,1.507,1.507,0,0,1,.67,1.25,1.553,1.553,0,0,1-.11.569,1.505,1.505,0,0,1-.33.491,1.582,1.582,0,0,1-.48.33A1.658,1.658,0,0,1,35.29,30Z" fill="#3e4166"/>
    <path d="M40.952,28.788a1.5,1.5,0,0,1-1.217-2.376A1.393,1.393,0,0,0,40,25.589a7.25,7.25,0,0,0-2.192-5.177,7.741,7.741,0,0,0-5.349-2.143,1.5,1.5,0,0,1,0-3A10.619,10.619,0,0,1,39.9,18.258,10.263,10.263,0,0,1,43,25.589a4.385,4.385,0,0,1-.829,2.575A1.5,1.5,0,0,1,40.952,28.788Z" fill="#3e4166"/>
  </g>
</svg>
