<svg xmlns="http://www.w3.org/2000/svg" width="43" height="29" viewBox="0 0 43 29">
  <title>Video</title>
  <g>
    <path d="M27.5,29H1.5A1.5,1.5,0,0,1,0,27.5V1.5A1.5,1.5,0,0,1,1.5,0h26A1.5,1.5,0,0,1,29,1.5v26A1.5,1.5,0,0,1,27.5,29ZM3,26H26V3H3Z" fill="#3e4166"/>
    <path d="M41.5,27h-6a1.5,1.5,0,0,1-.988-.371l-8-7A1.5,1.5,0,0,1,26,18.5v-8a1.5,1.5,0,0,1,.512-1.129l8-7A1.5,1.5,0,0,1,35.5,2h6A1.5,1.5,0,0,1,43,3.5v22A1.5,1.5,0,0,1,41.5,27Zm-5.437-3H40V5H36.063L29,11.181v6.638Z" fill="#3e4166"/>
    <path d="M20.5,22A1.5,1.5,0,0,1,19,20.5a1.351,1.351,0,0,1,.03-.29,1.291,1.291,0,0,1,.09-.28,1.264,1.264,0,0,1,.13-.26,2.221,2.221,0,0,1,.19-.231,1.506,1.506,0,0,1,.23-.189,1.593,1.593,0,0,1,.26-.141,2.481,2.481,0,0,1,.28-.079,1.417,1.417,0,0,1,.58,0,2.481,2.481,0,0,1,.28.079,2.153,2.153,0,0,1,.26.141,2.223,2.223,0,0,1,.23.189A1.5,1.5,0,0,1,22,20.5a1.553,1.553,0,0,1-.11.569,1.54,1.54,0,0,1-.82.821A1.562,1.562,0,0,1,20.5,22Z" fill="#3e4166"/>
    <path d="M14.813,22H8.5a1.5,1.5,0,0,1,0-3h6.313a1.5,1.5,0,0,1,0,3Z" fill="#3e4166"/>
  </g>
</svg>
