<svg xmlns="http://www.w3.org/2000/svg" width="38.556" height="43" viewBox="0 0 38.556 43">
  <title>Whatsapps</title>
  <g>
    <path d="M19.278,38.56a1.373,1.373,0,0,1-.57-.121,1.321,1.321,0,0,1-.49-.319,1.482,1.482,0,0,1-.321-1.641,1.34,1.34,0,0,1,.131-.259,2,2,0,0,1,.19-.23,1.319,1.319,0,0,1,.23-.18,1.059,1.059,0,0,1,.26-.14,1.309,1.309,0,0,1,.28-.09,1.88,1.88,0,0,1,.58,0,1.327,1.327,0,0,1,.28.09,1.27,1.27,0,0,1,.259.14,1.328,1.328,0,0,1,.231.18,1.52,1.52,0,0,1,.329,1.64,1.618,1.618,0,0,1-.329.49A1.5,1.5,0,0,1,19.278,38.56Z" fill="#3e4166"/>
    <path d="M7.055,43a1.5,1.5,0,0,1-1.5-1.5V32.821A19.073,19.073,0,0,1,0,19.277a19.278,19.278,0,1,1,26.7,17.8,1.5,1.5,0,1,1-1.154-2.769A16.281,16.281,0,1,0,3,19.277,16.112,16.112,0,0,0,8.086,31.1a1.5,1.5,0,0,1,.47,1.089v5.69l3.128-3.129a1.5,1.5,0,0,1,2.121,2.121l-5.689,5.69A1.5,1.5,0,0,1,7.055,43Z" fill="#3e4166"/>
    <path d="M22.751,26.746a2.917,2.917,0,0,1-2.074-.859l-8.341-8.343A2.977,2.977,0,1,1,16.511,13.3l.228.228a2.933,2.933,0,0,1,.866,2.088v2.532a1.53,1.53,0,0,1-.056.409l2.34,2.322a1.5,1.5,0,0,1,.394-.053h2.532a2.934,2.934,0,0,1,2.087.865l.029.03a2.951,2.951,0,0,1-1.181,4.86A3.156,3.156,0,0,1,22.751,26.746ZM14.39,15.421l.215.214v-.02Z" fill="#3e4166"/>
  </g>
</svg>
